<?xml version="1.0" standalone="no"?>
<!DOCTYPE svg PUBLIC "-//W3C//DTD SVG 20010904//EN"
 "http://www.w3.org/TR/2001/REC-SVG-20010904/DTD/svg10.dtd">
<svg version="1.0" xmlns="http://www.w3.org/2000/svg"
 width="900.000000pt" height="900.000000pt" viewBox="0 0 900.000000 900.000000"
 preserveAspectRatio="xMidYMid meet">
<metadata>
Created by potrace 1.10, written by Peter Selinger 2001-2011
</metadata>
<g transform="translate(0.000000,900.000000) scale(0.100000,-0.100000)"
fill="#000000" stroke="none">
<path d="M6810 8824 c-100 -28 -215 -66 -227 -76 -6 -5 -36 -22 -67 -37 -77
-40 -100 -59 -255 -207 -189 -181 -5026 -5018 -5186 -5186 -124 -131 -185
-200 -185 -211 0 -3 -19 -38 -43 -79 -23 -40 -51 -93 -61 -118 -10 -25 -24
-58 -31 -75 -15 -35 -35 -110 -65 -245 -12 -52 -28 -115 -35 -140 -7 -25 -18
-72 -25 -105 -6 -33 -18 -75 -26 -93 -8 -18 -14 -46 -14 -62 0 -16 -5 -41 -11
-57 -7 -15 -15 -46 -20 -68 -4 -22 -17 -83 -29 -135 -12 -52 -25 -116 -30
-143 -5 -26 -13 -62 -19 -80 -5 -17 -17 -61 -26 -97 -9 -36 -20 -78 -25 -95
-8 -27 -21 -83 -50 -212 -6 -23 -10 -55 -10 -72 0 -16 -4 -33 -10 -36 -5 -3
-10 -19 -10 -34 0 -15 -6 -47 -14 -72 -28 -92 -45 -157 -66 -254 -12 -55 -25
-110 -30 -121 -5 -12 -12 -43 -15 -70 -4 -27 -11 -53 -15 -59 -4 -5 -10 -26
-12 -45 -6 -42 -26 -124 -40 -165 -19 -55 -21 -101 -3 -134 44 -85 137 -125
205 -86 14 8 39 14 56 15 17 0 48 7 67 15 20 8 49 15 65 15 15 0 32 4 37 9 6
6 41 15 80 21 38 6 103 20 145 31 41 12 95 25 120 29 25 5 77 18 115 30 67 20
119 32 215 49 54 10 166 37 235 56 68 18 157 41 235 59 126 30 326 75 400 91
41 9 89 21 105 27 17 5 51 14 77 18 26 5 56 13 67 19 11 6 30 11 44 11 13 0
43 6 68 14 24 8 80 22 124 31 44 10 112 25 150 35 74 19 248 91 274 113 9 8
23 17 31 21 34 15 59 34 140 103 112 94 5397 5385 5438 5443 43 62 124 224
144 290 45 148 50 184 45 326 -2 77 -9 153 -15 169 -6 17 -16 50 -23 75 -21
74 -104 241 -155 310 -26 36 -267 283 -534 550 -366 367 -503 498 -558 533
-86 56 -218 120 -282 136 -25 7 -58 17 -75 23 -51 18 -321 20 -385 2z m396
-277 c91 -27 167 -69 244 -132 95 -79 914 -900 977 -980 59 -74 90 -136 119
-235 25 -81 31 -325 10 -375 -9 -21 -16 -46 -16 -55 0 -26 -59 -147 -98 -200
-44 -62 -395 -410 -412 -410 -12 0 -361 341 -718 703 -64 65 -199 200 -300
300 -501 497 -838 839 -846 858 -9 18 13 43 178 207 103 103 207 201 230 218
55 41 162 94 191 94 12 0 38 7 56 15 46 20 311 15 385 -8z m-1216 -737 c6 -11
17 -20 24 -20 18 0 266 -258 266 -278 0 -21 -4708 -4731 -4737 -4738 -16 -4
-43 7 -95 42 -86 58 -91 60 -163 98 -71 38 -131 91 -127 114 5 25 4784 4802
4804 4802 10 0 22 -9 28 -20z m557 -542 c24 -23 43 -48 43 -55 0 -7 10 -17 22
-24 11 -6 146 -138 300 -293 153 -154 284 -286 290 -293 7 -6 34 -32 61 -56
31 -29 47 -53 47 -68 0 -18 -547 -570 -2363 -2386 -1300 -1300 -2371 -2363
-2380 -2363 -9 0 -36 15 -60 33 -23 17 -68 48 -100 67 -234 141 -335 225 -436
360 -62 84 -69 95 -106 160 -14 25 -34 59 -45 75 -11 17 -23 37 -27 45 -3 8
-19 31 -35 50 -15 19 -28 41 -28 50 0 8 1063 1078 2362 2377 1850 1850 2368
2363 2388 2363 15 0 40 -15 67 -42z m1108 -1117 c137 -134 175 -177 175 -195
0 -18 -4783 -4793 -4808 -4801 -18 -5 -25 -2 -29 14 -3 12 -9 21 -14 21 -5 0
-27 33 -49 73 -51 89 -53 93 -118 189 l-53 79 20 27 c38 52 4719 4722 4732
4722 8 -1 73 -58 144 -129z m-6540 -3436 c39 -25 80 -49 93 -55 64 -28 245
-171 287 -227 16 -21 32 -40 36 -43 4 -3 37 -54 74 -115 210 -345 302 -439
630 -646 39 -25 83 -51 99 -59 39 -20 224 -204 264 -262 18 -26 64 -101 103
-165 l70 -118 -26 -22 c-14 -13 -38 -23 -52 -23 -15 0 -40 -4 -57 -9 -17 -5
-76 -19 -131 -31 -55 -12 -121 -28 -146 -36 -26 -8 -55 -14 -64 -14 -18 0 -87
-18 -176 -46 -26 -8 -60 -14 -77 -14 -17 0 -34 -4 -37 -10 -3 -5 -16 -10 -29
-10 -13 0 -58 -9 -101 -20 -43 -11 -84 -20 -92 -20 -20 0 -1013 994 -1013
1015 0 20 25 136 45 210 26 100 36 141 44 180 4 22 12 56 18 75 13 41 39 157
49 215 4 22 11 48 16 59 6 10 14 42 18 70 22 132 36 166 69 166 9 0 48 -20 86
-45z m-30 -1634 c201 -200 365 -370 365 -377 0 -13 -90 -42 -215 -68 -175 -37
-221 -48 -250 -58 -16 -5 -48 -14 -70 -18 -39 -8 -77 -18 -180 -45 -100 -27
-191 -46 -230 -48 -40 -2 -40 -2 -38 33 2 48 49 256 78 351 8 26 15 57 15 70
1 13 7 35 15 49 8 14 14 39 15 56 0 17 6 49 14 70 7 22 16 62 20 89 7 45 49
220 61 253 3 8 12 12 20 10 8 -2 179 -167 380 -367z"/>
</g>
</svg>
