
<svg xmlns="http://www.w3.org/2000/svg" viewBox="0 0 500 500" width="28" height="28">
  <path d="M 147.635 488.682 L 120.512 460.957 L 155.341 425.238 L 21.803 288.384 C -1.426 264.583 -1.426 226.912 21.803 203.114 L 23.717 201.095 L 145.658 76.159 C 168.89 52.358 205.691 52.358 228.928 76.159 L 376.049 226.896 L 389.62 240.764 L 201.823 433.168 L 186.349 449.018 L 182.467 453.003 L 147.635 488.682 Z M 182.467 397.472 L 335.392 240.764 L 292.824 197.145 L 81.759 197.145 L 48.864 230.846 C 41.123 238.78 41.123 252.664 48.864 260.599 L 182.467 397.472 Z M 412.828 171.347 L 397.326 147.561 C 397.326 147.561 387.663 131.717 376.049 113.867 C 370.243 103.949 366.376 95.994 362.498 86.076 C 358.625 76.159 354.756 70.208 354.756 58.306 C 354.756 26.572 381.855 -1.194 412.828 -1.194 C 443.804 -1.194 470.911 26.572 470.911 58.306 C 470.911 70.208 467.035 78.143 463.167 88.058 C 459.291 97.976 453.491 107.893 449.616 115.823 C 439.934 133.677 428.336 149.546 428.336 149.546 L 412.828 171.347 Z" fill="#333" style="transform-origin: 237.648px 243.744px 0px;" transform="matrix(-1, 0.000001, -0.000001, -1, 0, 0)"></path>
  <path style="transform-origin: 1373.94px -633.746px 0px;" d="M 2487.6 -1642.9 C 2469.73 -1661.2 2452.17 -1660.9 2434.91 -1641.9 L 2319.913 -1522.416 C 2302.653 -1503.416 2318.538 -1502.252 2353.658 -1502.852 L 2566.568 -1507.944 C 2601.708 -1508.544 2622.242 -1506.14 2597.428 -1526.424 L 2487.6 -1642.9 Z" fill="#000000" transform="matrix(-1, 0, 0, -1, -0.000117, 0.00201)"></path>
  <path d="M 62.699 315.138 C 68.407 318.533 120.032 399.322 110.433 393.612 C 142.913 449.317 95.838 489.829 61.537 489.395 C 28.856 488.981 -13.265 447.528 14.967 395.919 C 12.802 393.773 61.897 314.342 62.699 315.138 Z" fill="#000000"></path>
</svg>
